# xmcd
#
# Track frame offsets:
#	150
#	8664
#	19805
#	28353
#	42093
#	51514
#	64191
#	73251
#	92843
#	104181
#	115595
#	126276
#	137532
#	150772
#	162822
#	172487
#	184629
#	194691
#	206104
#	222380
#	233890
#	243366
#	253957
#	264094
#
# Disc length: 3710 seconds
#
# Revision: 0
# Processed by: cddbd v1.5.2PL0 Copyright (c) Steve Scherf et al.
# Submitted via: audiograbber 1.83.01
#
DISCID=670e7c18
DTITLE=Various Artist - Country and Western Greatest Hits
DYEAR=1978
DGENRE=Country
TTITLE0=San Quentin
TTITLE1=Give My Love To Rose
TTITLE2=Oh Susanna 
TTITLE3=Franky And Johnny 
TTITLE4=She'll Be Coming 'Round The Mountain 
TTITLE5=Jackson
TTITLE6=She's Gone
TTITLE7=Sunday Morning Coming Down
TTITLE8=My Old Kentucky Home
TTITLE9=Willow Tree
TTITLE10=Red River Valley
TTITLE11=Paper Roses
TTITLE12=Happy Anniversary
TTITLE13=Tennessee Waltz
TTITLE14=Old Folks At Home
TTITLE15=Jambalaya
TTITLE16=Bole Weevil 
TTITLE17=All The Good Times 
TTITLE18=A Boy Named Sue
TTITLE19=Lovesick Blues
TTITLE20=Cripple Creek
TTITLE21=Yellow Rose Of Texas 
TTITLE22=Little Green Valley
TTITLE23=There's A Tavern In The Town 
EXTD=
EXTT0=
EXTT1=
EXTT2=
EXTT3=
EXTT4=
EXTT5=
EXTT6=
EXTT7=
EXTT8=
EXTT9=
EXTT10=
EXTT11=
EXTT12=
EXTT13=
EXTT14=
EXTT15=
EXTT16=
EXTT17=
EXTT18=
EXTT19=
EXTT20=
EXTT21=
EXTT22=
EXTT23=
PLAYORDER=
